<svg xmlns="http://www.w3.org/2000/svg" xmlns:svg="http://www.w3.org/2000/svg" width="37" height="35" viewBox="0 0 60.4 50.5">
  
    <g fill="none" stroke="#8a8b8c" stroke-linecap="round" stroke-linejoin="round" stroke-width="1.65px">
      <path d="M35.3 41.1H13.8a5.3 5.3 0 0 1-5-3.8L5.2 26.7H59.5l-5.8 7C49.2 39.2 42.4 41.1 35.3 41.1ZM20.3 16.9H43.3a4.7 4.7 0 0 1 4.7 4.7v5.1H11.7V16.9H16.2"/>
      <path d="M11.5 32.1l1.2 3.3a3.2 3.2 0 0 0 3 2.1H26.5" stroke="#d72a27"/>
      <path d="M17.8h0.9A1.3 1.3 0 0 1 20 2.2V26.7H16.5V2.2A1.3 1.3 0 0 1 17.8ZM0.8 41.1h0ZM50.8 41.1h0ZM15.7 45.4h0ZM4.5 45.4h0ZM43.1 45.4h0ZM34.1 45.4h0ZM29.6 49.6h0ZM19.9 49.6h0ZM1.7 49.6h0ZM39.9 49.6h0Z"/>
	  <path d="M43.5 35.9s3-0.5 4.4-1.7c1.8-1.7 3.6-3.6 3.6-3.6" stroke="#d72a27"/>
      <circle cx="33.5" cy="21.9" r="1.8" stroke="#d72a27"/>
      <circle cx="26.3" cy="21.9" r="1.8" stroke="#d72a27"/>
      <circle  cx="40.7" cy="21.9" r="1.8" stroke="#d72a27"/>
      <path d="M20 9.2h7.8a3.9 3.9 0 0 1 3.9 3.9v3.7a0 0 0 0 1 0 0H20a0 0 0 0 1 0 0V9.2A0 0 0 0 1 20 9.2Z"/>
      <line x1="23.4" y1="13.1" x2="27.7" y2="13.1"/>
	  </g>
	 
</svg>