<?xml version="1.0" encoding="utf-8"?>
<!-- Generator: Adobe Illustrator 16.0.0, SVG Export Plug-In . SVG Version: 6.00 Build 0)  -->
<!DOCTYPE svg PUBLIC "-//W3C//DTD SVG 1.1//EN" "http://www.w3.org/Graphics/SVG/1.1/DTD/svg11.dtd">
<svg version="1.1" id="Layer_1" xmlns="http://www.w3.org/2000/svg" xmlns:xlink="http://www.w3.org/1999/xlink" x="0px" y="0px"
	 width="33px" height="37px" viewBox="0 0 33 37" enable-background="new 0 0 33 37" xml:space="preserve">
<path id="Stroke-1" stroke="#000000" d="M12,7.833c-1.657,0-3-1.343-3-3s1.343-3,3-3s3,1.343,3,3S13.657,7.833,12,7.833z M12,25.834
	c-1.657,0-3-1.344-3-3s1.343-3,3-3s3,1.344,3,3S13.657,25.834,12,25.834z M12,16.833c-1.657,0-3-1.343-3-3s1.343-3,3-3s3,1.343,3,3
	S13.657,16.833,12,16.833z"/>
</svg>
