<svg xmlns="http://www.w3.org/2000/svg" width="24" height="24" viewBox="0 0 24 24">
    <g fill="none" fill-rule="evenodd">
        <circle cx="12" cy="12" r="11" stroke="#BC0100" stroke-width="2"/>
        <path fill="#BC0100" d="M6.976 12.066a.427.427 0 0 1-.119-.277c0-.08.04-.198.119-.277l.554-.554a.382.382 0 0 1 .554 0l.04.04 2.175 2.334c.079.079.198.079.277 0l5.3-5.499h.04a.382.382 0 0 1 .554 0l.554.554a.382.382 0 0 1 0 .554l-6.33 6.567a.36.36 0 0 1-.276.118.36.36 0 0 1-.277-.118l-3.086-3.323-.08-.12z"/>
    </g>
</svg>
