<svg xmlns="http://www.w3.org/2000/svg" width="37" height="35" viewBox="0 0 37 35">
    <g fill="none" fill-rule="evenodd" stroke-linecap="round" stroke-linejoin="round" stroke-width=".7">
        <path stroke="#BC0100" d="M3.512 19.326L1.957 23.94h1.947l3.262-3.683"/>
        <path stroke="#8A8B8C" d="M20.454 7.533h3.563a1.24 1.24 0 1 1 0 2.481l-1.626.001"/>
        <path stroke="#BC0100" d="M7.265 15.233l-3.361-3.77H1.957l1.526 4.531"/>
        <path stroke="#8A8B8C" d="M20.454 27.98h3.563a1.24 1.24 0 1 0 0-2.48l-1.626-.001M35.683 17.704c0-1.89-4.49-3.421-5.765-3.42l-21.826.998-.723.02-6.446 1.38v2.043l6.48 1.38.644.019 21.871 1.001c1.276 0 5.765-1.532 5.765-3.421z"/>
        <path stroke="#8A8B8C" d="M25.975 14.466L15.055 1.021l-2.206.774 5.733 12.981M25.974 21.047L15.055 34.492l-2.206-.773 5.732-12.982"/>
        <path stroke="#BC0100" d="M29.532 16.235v2.864-2.864z"/>
    </g>
</svg>
